PathFileType	4	(X/Y/Z)	/Users/niels/Desktop/University/Third Semester/Perception and Action/Exam/Gymnastics Motion Tracking/Code for Gym Tracking/Analyzed Data/kraft_good_id2_1_Sports2D/kraft_good_id2_1_Sports2D_px_person00.trc
DataRate	CameraRate	NumFrames	NumMarkers	Units	OrigDataRate	OrigDataStartFrame	OrigNumFrames
143.44186046511626	143.44186046511626	7	22	m	143.44186046511626	32	258
Frame#	Time	Hip			RHip			RKnee			RAnkle			RBigToe			RSmallToe			RHeel			LHip			LKnee			LAnkle			LBigToe			LSmallToe			LHeel			Neck			Head			Nose			RShoulder			RElbow			RWrist			LShoulder			LElbow			LWrist		
		X1	Y1	Z1	X2	Y2	Z2	X3	Y3	Z3	X4	Y4	Z4	X5	Y5	Z5	X6	Y6	Z6	X7	Y7	Z7	X8	Y8	Z8	X9	Y9	Z9	X10	Y10	Z10	X11	Y11	Z11	X12	Y12	Z12	X13	Y13	Z13	X14	Y14	Z14	X15	Y15	Z15	X16	Y16	Z16	X17	Y17	Z17	X18	Y18	Z18	X19	Y19	Z19	X20	Y20	Z20	X21	Y21	Z21	X22	Y22	Z22
32	0.2230869001297017	-0.003903733476007976	-0.3808021616541136	0.0	-0.005284637626793702	-0.383864366836239	0.0	0.02916128084833035	-0.4449717463227706	0.0	-0.004080681482461939	-0.4818880466299455	0.0	0.015430151969911656	-0.5418240148919711	0.0	0.0029001442008160646	-0.5412622945375962	0.0	-0.01741126192914597	-0.4916437718563594	0.0	0.0016288349044108483	-0.38330032655888774	0.0	0.02129067650966504	-0.45268689878268775	0.0	0.0019411824602949298	-0.5162715790955791	0.0	0.021444622403108585	-0.5479957107293393	0.0	0.01313680247384575	-0.5802510523534238	0.0	-0.0070603306838152805	-0.5149680770720876	0.0	0.04497461919939291	-0.2773125833550639	0.0	0.06122882422029155	-0.2327321531913119	0.0	0.07330710184988017	-0.2631840599261536	0.0	0.027989638034051117	-0.28235916924837934	0.0	0.05198934116496799	-0.268818456045682	0.0	0.08567922016250872	-0.23968782711460435	0.0	0.059498667604776206	-0.2906697720740595	0.0	0.11280722512986058	-0.2809515197268499	0.0	0.16411354515099566	-0.2652642582780918	0.0
33	0.23005836575875488	-0.0009470102095880374	-0.3796067788951026	0.0	-0.0023705036019616528	-0.3826517623091077	0.0	0.03493697336362512	-0.4447556264402488	0.0	-0.0018248841339504824	-0.4829193688498244	0.0	0.017751316213060964	-0.5416709047785008	0.0	0.005385669408830187	-0.5410516683755436	0.0	-0.015118620856766544	-0.4922972820004731	0.0	0.0045972582180614525	-0.3824767379552246	0.0	0.021702333165571516	-0.4535870401378267	0.0	0.002128470490611307	-0.5163823259814071	0.0	0.02191765522426752	-0.548155888453283	0.0	0.013844853879879382	-0.5789221739915016	0.0	-0.006853974762411814	-0.5149924809198417	0.0	0.04981316906605321	-0.2761274305081345	0.0	0.06672385835768051	-0.23142000554565884	0.0	0.07881104496986495	-0.26202118555333015	0.0	0.03216670201119185	-0.28048917546562496	0.0	0.05779318913430795	-0.2666829207112001	0.0	0.0920388959202816	-0.2375588052408312	0.0	0.06462848938544405	-0.289338400834159	0.0	0.11795355706050817	-0.2792173326603708	0.0	0.16903249159140418	-0.26302987673689243	0.0
34	0.23702983138780806	0.0022248803676189893	-0.37835123375225166	0.0	0.0007518573976613762	-0.3813531878804819	0.0	0.04094561198744402	-0.4444032822186472	0.0	0.0007968670720716973	-0.48403767475798126	0.0	0.020469088169753163	-0.5415151193438098	0.0	0.008281816354008317	-0.5408383429959377	0.0	-0.012454258442355226	-0.4930328326449885	0.0	0.007743126965035268	-0.3815635884367093	0.0	0.022388840359197953	-0.4544115023252888	0.0	0.002441228702116492	-0.5165305603873089	0.0	0.022547499751253974	-0.5483489852009116	0.0	0.014727117236535591	-0.5775011451557353	0.0	-0.006522081057771304	-0.5150630121168807	0.0	0.054880184479741544	-0.2749310152580883	0.0	0.0724986830312502	-0.23011466229368635	0.0	0.08452158676227563	-0.26083162715871844	0.0	0.03666924173547095	-0.278624171096254	0.0	0.06386648383922616	-0.26460412049765075	0.0	0.09868183275803646	-0.23549940563654473	0.0	0.06994398182593192	-0.2880008593959407	0.0	0.12329533517463387	-0.2775166364927638	0.0	0.1741468855235071	-0.2608456108489613	0.0
35	0.24400129701686124	0.0056082183959303275	-0.3770444782051257	0.0	0.0040834381248129326	-0.37997834371009626	0.0	0.04716322868453809	-0.44391866410341846	0.0	0.0038095728306200625	-0.48523957333848855	0.0	0.02361289234718365	-0.5413590510960461	0.0	0.011617497074635092	-0.5406257906788486	0.0	-0.009392804331420488	-0.4938532424810051	0.0	0.011065594133987042	-0.38056489319038667	0.0	0.023381438203974564	-0.4551544444577737	0.0	0.0028990773674681595	-0.5167211115979217	0.0	0.023354172814576156	-0.5485780555434019	0.0	0.015802389800913447	-0.5759960124834803	0.0	-0.006045376254819412	-0.515187721665374	0.0	0.060156433279431314	-0.27373502613948014	0.0	0.07853547601878849	-0.22882842227189398	0.0	0.0904208839809879	-0.25962694810880615	0.0	0.041485626895377145	-0.27678012985077094	0.0	0.07018809628969948	-0.26260037052018304	0.0	0.10558701902266505	-0.23353208315119114	0.0	0.0754239231414993	-0.28666640642193914	0.0	0.12881128678223938	-0.2758669198740751	0.0	0.17943844442316612	-0.2587333706591776	0.0
36	0.2509727626459144	0.009198450660650146	-0.3756964367298618	0.0	0.007625160983317116	-0.37853947753366535	0.0	0.05356377585023688	-0.4433098603524767	0.0	0.007235887300996076	-0.48651942656866953	0.0	0.027210106326123862	-0.5412055844180657	0.0	0.015419217961067011	-0.5404181752596003	0.0	-0.005911214023155985	-0.49476030381142655	0.0	0.014562134593616714	-0.3794874337853415	0.0	0.024710173922010144	-0.45581149323478387	0.0	0.003522891800264761	-0.5169589933132996	0.0	0.024358428665405593	-0.548846097129137	0.0	0.01708965323003779	-0.5744180443495598	0.0	-0.005403397289431209	-0.5153752765648171	0.0	0.06562241095783435	-0.27255110419229595	0.0	0.08481544275650865	-0.22757359750095793	0.0	0.09649165394233111	-0.25841965623012997	0.0	0.04660126634294903	-0.27497286270341204	0.0	0.07673724727755786	-0.2606887144006255	0.0	0.11273340962081828	-0.23167786327476494	0.0	0.08104742371987823	-0.28534395688761416	0.0	0.1344803207013287	-0.2742846853997318	0.0	0.184888953349925	-0.25671360414917144	0.0
37	0.2579442282749676	0.012990205502160356	-0.37431788966719665	0.0	0.011377258013692685	-0.377050707588357	0.0	0.060120503600918106	-0.4425881005480698	0.0	0.011095070870742007	-0.48786923560654505	0.0	0.031285128426132625	-0.5410581412249378	0.0	0.01971009089285089	-0.5402204142758211	0.0	-0.00198967624942622	-0.4957545400382606	0.0	0.018228677081194987	-0.37834028248724116	0.0	0.026401062097192493	-0.4563791291639886	0.0	0.004334664080904094	-0.5172493466433258	0.0	0.02558151771951641	-0.5491559826019536	0.0	0.01860775327526903	-0.5727821736335539	0.0	-0.004574635129490902	-0.5156349217085975	0.0	0.07125908971383518	-0.2713905040797511	0.0	0.09131967112010506	-0.22636231657905725	0.0	0.10271773490727866	-0.25722313469167724	0.0	0.051999711020845545	-0.2732176511164353	0.0	0.08349425104619385	-0.25888468277489285	0.0	0.12010068060839645	-0.22995608350026378	0.0	0.08679445090316852	-0.284041840220663	0.0	0.1402821812893914	-0.2727850742160375	0.0	0.19048082220587995	-0.25480489464121087	0.0
38	0.26491569390402075	0.016977498764196824	-0.3729202251833757	0.0	0.01533895284230367	-0.375527291578641	0.0	0.06680731355884276	-0.4417668492652506	0.0	0.01540196798908735	-0.48927904183423354	0.0	0.03585830962232185	-0.5409207257739065	0.0	0.024508704959248454	-0.5400382395454668	0.0	0.0023873537602253497	-0.49683493775107174	0.0	0.022059940110536042	-0.37713418600064225	0.0	0.02847384617312933	-0.45685475579882956	0.0	0.005357315611704029	-0.5175973691077065	0.0	0.027044886886335287	-0.5495103800305362	0.0	0.020375016900768875	-0.5711074614526979	0.0	-0.0035367275120217877	-0.5159764231384606	0.0	0.07704849705015325	-0.27026381826670837	0.0	0.09802988820166882	-0.22520633750986696	0.0	0.10908451760798289	-0.2560513078669543	0.0	0.05766362289359748	-0.27152888537439973	0.0	0.09044109924105234	-0.25720210439211105	0.0	0.12766986355932508	-0.22838414008459806	0.0	0.09264629068630907	-0.28276759487246206	0.0	0.14619793512480095	-0.2713815430581405	0.0	0.19619757047476954	-0.25302363285966767	0.0
